<?xml version="1.0" encoding="UTF-8" standalone="no"?>
<svg
   xmlns:dc="http://purl.org/dc/elements/1.1/"
   xmlns:cc="http://creativecommons.org/ns#"
   xmlns:rdf="http://www.w3.org/1999/02/22-rdf-syntax-ns#"
   xmlns:svg="http://www.w3.org/2000/svg"
   xmlns="http://www.w3.org/2000/svg"
   xmlns:sodipodi="http://sodipodi.sourceforge.net/DTD/sodipodi-0.dtd"
   xmlns:inkscape="http://www.inkscape.org/namespaces/inkscape"
   height="24"
   width="24"
   version="1.1"
   id="svg12"
   sodipodi:docname="selectFreehand.svg"
   inkscape:version="0.92.4 (5da689c313, 2019-01-14)">
  <metadata
     id="metadata18">
    <rdf:RDF>
      <cc:Work
         rdf:about="">
        <dc:format>image/svg+xml</dc:format>
        <dc:type
           rdf:resource="http://purl.org/dc/dcmitype/StillImage" />
      </cc:Work>
    </rdf:RDF>
  </metadata>
  <defs
     id="defs16" />
  <sodipodi:namedview
     pagecolor="#ffffff"
     bordercolor="#666666"
     borderopacity="1"
     objecttolerance="10"
     gridtolerance="10"
     guidetolerance="10"
     inkscape:pageopacity="0"
     inkscape:pageshadow="2"
     inkscape:window-width="716"
     inkscape:window-height="480"
     id="namedview14"
     showgrid="false"
     inkscape:zoom="9.8333333"
     inkscape:cx="12"
     inkscape:cy="12"
     inkscape:window-x="0"
     inkscape:window-y="0"
     inkscape:window-maximized="0"
     inkscape:current-layer="g10" />
  <g
     transform="translate(0 -1028.3622)"
     id="g10">
    <path
       d="m1.1364216 1030.0126c-2.237601 1.3008 3.8896384 5.4906 1.9674915 8.3984-1.3990735 3.001-2.51776726 6.2623-2.4036758 9.5985.0159939 2.6146 3.5401896 4.8272 5.2587602 2.2272 1.3167158-1.7194 2.7091903-3.8997 5.1595055-3.8763 3.013784-.1235 6.461621 1.5325 9.107356-.6126 2.525558-2.8416-11.4181656-6.5347 2.238618-10.1965 1.311373-2.9919-1.738346-6.7068-4.936741-5.7421-3.586821 1.3974-5.596346 4.0061-9.2530467 1.9457-1.4354323-.8662-5.3693265-2.5441-7.1382677-1.7423z"
       fill="#ebebeb"
       id="path2"
       style="fill:#ebebeb;fill-opacity:0.29411766" />
    <path
       d="m1.1364216 1030.0126c-2.237601 1.3008 3.8896384 5.4906 1.9674915 8.3984-1.3990735 3.001-2.51776724 6.2623-2.40367578 9.5985.0159939 2.6146 3.54018958 4.8272 5.25876018 2.2272 1.3167158-1.7194 2.7091903-3.8997 5.1595055-3.8763 3.013784-.1235 6.461621 1.5325 9.107356-.6126 2.525558-2.8416-11.4181656-6.5347 2.238618-10.1965 1.311373-2.9919-1.738346-6.7068-4.936741-5.7421-3.586821 1.3974-5.596346 4.0061-9.2530467 1.9457-1.4354323-.8662-5.3693265-2.5441-7.1382677-1.7423z"
       fill="none"
       stroke="#424242"
       stroke-dasharray="2.4 1.2"
       stroke-width="1.20000005"
       id="path6" />
    <path
       d="m22.652743 1044.0577l-12.756464-6.9791 5.477553 13.6014 2.180887-3.5312 4.312159 4.7134 1.633122-1.5913-4.408599-4.6683 3.561343-1.5449z"
       style="fill:#fff;fill-rule:evenodd;stroke:#000;stroke-width:.69999999;stroke-linecap:round;stroke-linejoin:round"
       id="path8" />
  </g>
</svg>
