<?xml version="1.0" encoding="UTF-8" standalone="no"?>
<svg
   xmlns:dc="http://purl.org/dc/elements/1.1/"
   xmlns:cc="http://creativecommons.org/ns#"
   xmlns:rdf="http://www.w3.org/1999/02/22-rdf-syntax-ns#"
   xmlns:svg="http://www.w3.org/2000/svg"
   xmlns="http://www.w3.org/2000/svg"
   xmlns:sodipodi="http://sodipodi.sourceforge.net/DTD/sodipodi-0.dtd"
   xmlns:inkscape="http://www.inkscape.org/namespaces/inkscape"
   enable-background="new 0 0 24 24"
   height="24"
   viewBox="0 0 24 24"
   width="24"
   version="1.1"
   id="svg16"
   sodipodi:docname="deselectAll.svg"
   inkscape:version="0.92.4 (5da689c313, 2019-01-14)">
  <metadata
     id="metadata22">
    <rdf:RDF>
      <cc:Work
         rdf:about="">
        <dc:format>image/svg+xml</dc:format>
        <dc:type
           rdf:resource="http://purl.org/dc/dcmitype/StillImage" />
      </cc:Work>
    </rdf:RDF>
  </metadata>
  <defs
     id="defs20" />
  <sodipodi:namedview
     pagecolor="#ffffff"
     bordercolor="#666666"
     borderopacity="1"
     objecttolerance="10"
     gridtolerance="10"
     guidetolerance="10"
     inkscape:pageopacity="0"
     inkscape:pageshadow="2"
     inkscape:window-width="716"
     inkscape:window-height="480"
     id="namedview18"
     showgrid="false"
     inkscape:zoom="9.8333333"
     inkscape:cx="12"
     inkscape:cy="12"
     inkscape:window-x="0"
     inkscape:window-y="0"
     inkscape:window-maximized="0"
     inkscape:current-layer="g14" />
  <g
     transform="translate(0 -8)"
     id="g14">
    <g
       transform="translate(-.00000002 8.0000001)"
       id="g12">
      <path
         d="m14.357 13.5h8.285c.474 0 .857.384.857.857v8.285c0 .474-.384.857-.857.857h-8.285c-.474 0-.857-.384-.857-.857v-8.285c0-.473.384-.857.857-.857z"
         fill="#c00"
         opacity=".9"
         stroke="#c00"
         stroke-linecap="square"
         stroke-linejoin="round"
         id="path4" />
      <path
         d="m13.5 18.5h10v-3.334c0-1.666 0-1.666-2.5-1.666-.582 0-5.061 0-5.834 0-1.666 0-1.666 0-1.666 1.666 0 .834 0 1.668 0 3.334z"
         fill="#fcffff"
         opacity=".5"
         id="path6" />
      <path
         d="m16.373 20.65l4.254-4.301"
         fill="none"
         stroke="#eeeeec"
         stroke-linecap="round"
         stroke-width="1.5"
         id="path8" />
      <circle
         cx="18.5"
         cy="18.5"
         fill="none"
         r="4.15625"
         stroke="#eeeeec"
         stroke-linecap="round"
         stroke-width="1.6875"
         id="circle10" />
    </g>
  </g>
</svg>
